<?xml version="1.0"?>
<svg xmlns="http://www.w3.org/2000/svg" height="512px" viewBox="-5 0 374 374.01033" width="512px"><g><path d="m357.84375 0c2.5.015625 4.777344 1.4375 5.886719 3.675781 1.113281 2.242188.863281 4.914063-.636719 6.914063l-128.679688 181.28125c-5.949218 8.046875-9.171874 17.78125-9.203124 27.789062v120.011719c0 2.648437-1.308594 5.289063-3.929688 5.949219l-72.878906 27.789062c-2.015625.933594-4.371094.769532-6.238282-.4375-1.863281-1.210937-2.980468-3.289062-2.953124-5.511718v-147.800782c-.027344-10.007812-3.25-19.742187-9.199219-27.789062l-128.679688-181.28125c-1.5-2-1.75-4.671875-.636719-6.914063 1.109376-2.238281 3.386719-3.660156 5.886719-3.675781zm0 0" fill="#FFCB52" data-original="#00EFD1" class="active-path" data-old_color="#00efd1"/></g> </svg>
